<svg xmlns="http://www.w3.org/2000/svg" xmlns:xlink="http://www.w3.org/1999/xlink" viewBox="0 0 500 500"><defs><linearGradient id="linear-gradient" x1="72.84" y1="241.36" x2="416.51" y2="241.36" gradientUnits="userSpaceOnUse"><stop offset="0.01" stop-color="#4c4c4e"/><stop offset="0.47" stop-color="#2d7571"/><stop offset="1" stop-color="#07a79d"/></linearGradient></defs><title>Artboard 1</title><g id="Layer_1" data-name="Layer 1"><path d="M72.33,257V222.43c0-1.7,1.59-2.53,2.49-1.31L91.9,244.49c.89,1.23,2.48.4,2.48-1.3V223.4c0-1.65,1-3,2.28-3h0c1.26,0,2.28,1.33,2.28,3v34.26c0,1.7-1.58,2.53-2.48,1.3L79.38,235.65c-.9-1.22-2.48-.39-2.48,1.31v20c0,1.65-1,3-2.29,3h0C73.35,259.94,72.33,258.61,72.33,257Z" style="fill:#4c4c4e"/><path d="M117,248.11H105.28a7.63,7.63,0,0,0,1.31,4.19,3.55,3.55,0,0,0,3,1.54,3.3,3.3,0,0,0,2.34-.88,12.43,12.43,0,0,0,2.06-3.25l3.19,2.33a16.67,16.67,0,0,1-1.56,2.82,9.5,9.5,0,0,1-1.77,1.93,6.4,6.4,0,0,1-2,1.11,7.73,7.73,0,0,1-2.36.35,6.9,6.9,0,0,1-5.87-3.07,13.81,13.81,0,0,1-2.22-8.21,14.28,14.28,0,0,1,2.15-8.21,6.68,6.68,0,0,1,5.74-3.09,6.61,6.61,0,0,1,5.7,3q2.08,3,2.08,8.28Zm-3.88-4q-.8-3.94-3.81-3.95a3,3,0,0,0-1.29.28,3.45,3.45,0,0,0-1.1.79,4.76,4.76,0,0,0-.85,1.24,6.86,6.86,0,0,0-.53,1.64Z" style="fill:#4c4c4e"/><path d="M123,248.3a4.48,4.48,0,0,0,0-4.48l-4.52-7.55h3.14a2.58,2.58,0,0,1,2.18,1.41l.66,1.14a2.39,2.39,0,0,0,4.34,0l.71-1.19a2.56,2.56,0,0,1,2.16-1.38H135l-4.67,7.59a4.47,4.47,0,0,0,0,4.46l5.64,9.32h-3.16a2.55,2.55,0,0,1-2.15-1.36l-1.86-3.08a2.37,2.37,0,0,0-4.28,0l-1.94,3.15a2.56,2.56,0,0,1-2.13,1.33h-3.3Z" style="fill:#4c4c4e"/><path d="M142.5,240.88l.87,16.76h-5.26l.61-16.76h-1.61v-4.61h1.61v-7.83h3.78v7.83h1.4l.14,4.61Z" style="fill:#4c4c4e"/><path d="M162,242V255.1c0,1.64-1,3-2.28,3h0c-1.26,0-2.29-1.34-2.29-3V221.53c0-1.64,1-3,2.29-3h2.88a18.07,18.07,0,0,1,5.74.69,7.54,7.54,0,0,1,3.44,2.61,13.2,13.2,0,0,1,2.61,8.4q0,5.43-2.78,8.6a9.45,9.45,0,0,1-7.5,3.18Zm0-5.53h1.7q6.28,0,6.28-6.33,0-6.12-6.48-6.11H162Z" style="fill:#4c4c4e"/><path d="M184.21,237.34H188l1.17,19.33c.06,1.1-.6,2-1.45,2h-3.51v-2.24q-2.34,2.85-5,2.85a6.6,6.6,0,0,1-5.61-3.2,14.35,14.35,0,0,1-2.19-8.16,13.87,13.87,0,0,1,2.19-8,6.49,6.49,0,0,1,5.51-3.2q2.85,0,5.12,3.07Zm-9,10.62a9.08,9.08,0,0,0,1.25,5,3.83,3.83,0,0,0,3.26,1.95,3.93,3.93,0,0,0,3.39-1.88,10.18,10.18,0,0,0,0-9.92,3.91,3.91,0,0,0-3.36-1.91,3.84,3.84,0,0,0-3.25,1.93A8.57,8.57,0,0,0,175.25,248Z" style="fill:#4c4c4e"/><path d="M198.23,242l1.31,16.76h-6.7L194.45,242h-1.61v-4.61h1.61V229.5h3.78v7.84h1.59l.06,4.61Z" style="fill:#4c4c4e"/><path d="M204.42,221.65h3.77v9.77c0,3.11,2,5.35,4.4,5.33h0a5.17,5.17,0,0,1,4.43,2.34c.94,1.36,1.41,3.54,1.41,6.52v13.1H214.7V246.07a7.56,7.56,0,0,0-.69-3.72,2.42,2.42,0,0,0-2.24-1.15,2.86,2.86,0,0,0-2.79,1.6c-.52,1.08-.79.31-.79,2.94v13h-3.77Z" style="fill:#4c4c4e"/><path d="M241.07,227.39v29.28c0,2.56-1.59,4.64-3.55,4.64h-1V227.39h-6.95v-5.61H248v5.61Z" style="fill:#07a79d"/><path d="M259.69,251.79H248a7.66,7.66,0,0,0,1.3,4.19,3.59,3.59,0,0,0,3,1.53,3.29,3.29,0,0,0,2.34-.87,12.43,12.43,0,0,0,2.06-3.25l3.19,2.32a16.67,16.67,0,0,1-1.56,2.82,9.23,9.23,0,0,1-1.76,1.93,6.23,6.23,0,0,1-2,1.11,7.55,7.55,0,0,1-2.37.35,6.88,6.88,0,0,1-5.87-3.07,13.79,13.79,0,0,1-2.22-8.21,14.27,14.27,0,0,1,2.15-8.2,6.7,6.7,0,0,1,5.74-3.1,6.6,6.6,0,0,1,5.7,3q2.08,3,2.09,8.27Zm-3.88-4q-.78-3.94-3.81-3.95a3.11,3.11,0,0,0-1.29.27,3.79,3.79,0,0,0-1.1.79,5.12,5.12,0,0,0-.85,1.24,7,7,0,0,0-.53,1.65Z" style="fill:#07a79d"/><path d="M275.81,240.86v6.56a10.63,10.63,0,0,0-2.31-2.83,3.7,3.7,0,0,0-2.37-.79,4.23,4.23,0,0,0-3.54,1.95,8.13,8.13,0,0,0-1.41,4.89,8.43,8.43,0,0,0,1.36,4.94,4.15,4.15,0,0,0,3.51,1.93,3.87,3.87,0,0,0,2.4-.77,10.88,10.88,0,0,0,2.36-2.89v6.52a8.18,8.18,0,0,1-4.59,1.55,7.8,7.8,0,0,1-6.35-3.2,13.86,13.86,0,0,1,0-16.08,7.69,7.69,0,0,1,10.9-1.78Z" style="fill:#07a79d"/><path d="M280.08,224.25h3.77v11c0,2.47,1.63,4.61,3.49,4.23a5.13,5.13,0,0,1,1-.1,5.18,5.18,0,0,1,4.43,2.35q1.41,2,1.41,6.52v13.1h-3.78V248.67a7.56,7.56,0,0,0-.69-3.72,2.42,2.42,0,0,0-2.24-1.15,2.86,2.86,0,0,0-2.79,1.6,14,14,0,0,0-.79,5.57v10.34h-3.77Z" style="fill:#07a79d"/><path d="M297.44,244.15c-.19-2.24,1.14-4.19,2.87-4.19h2.4v2a5.61,5.61,0,0,1,4.46-2.56,5.1,5.1,0,0,1,4.45,2.34q1.36,2,1.37,6.51v13.09H309.2V249.38a9.83,9.83,0,0,0-.67-4.36,2.46,2.46,0,0,0-2.38-1.23,2.73,2.73,0,0,0-2.67,1.63,14,14,0,0,0-.77,5.59v10.3h-5.29Z" style="fill:#07a79d"/><path d="M315.38,252.14a13.71,13.71,0,0,1,2.86-10,7.45,7.45,0,0,1,5.78-2.77,7.63,7.63,0,0,1,6.2,3.27,14.08,14.08,0,0,1,0,16.09,7.71,7.71,0,0,1-6.26,3.22,7.45,7.45,0,0,1-6.16-3.29A12.39,12.39,0,0,1,315.38,252.14Zm3.79-1.58a8.66,8.66,0,0,0,1.31,5.07,4.29,4.29,0,0,0,7.08,0,10.05,10.05,0,0,0,0-10A4.16,4.16,0,0,0,324,243.8a4.11,4.11,0,0,0-3.51,1.89A8.15,8.15,0,0,0,319.17,250.56Z" style="fill:#07a79d"/><path d="M339.6,226.87v34.44h-4.68V224.25h2.67A2.37,2.37,0,0,1,339.6,226.87Z" style="fill:#07a79d"/><path d="M341.53,250.49a12.43,12.43,0,0,1,2.54-7.88,7.51,7.51,0,0,1,12.38,0,14,14,0,0,1,0,16.08,7.71,7.71,0,0,1-6.26,3.23,7.43,7.43,0,0,1-6.15-3.3A13,13,0,0,1,341.53,250.49Zm3.86.09a8.73,8.73,0,0,0,1.31,5.07,4.29,4.29,0,0,0,7.08,0,10,10,0,0,0,0-10,4.23,4.23,0,0,0-7,0A8.25,8.25,0,0,0,345.39,250.58Z" style="fill:#07a79d"/><path d="M377.5,262.15c0,1,0,1.9-.08,2.67s-.12,1.44-.21,2a10.28,10.28,0,0,1-1.58,4.15,7.33,7.33,0,0,1-11.47,1,10.59,10.59,0,0,1-2.52-6.56h3.79a6.89,6.89,0,0,0,.72,2.43,3.77,3.77,0,0,0,3.43,2q4.14,0,4.14-6.65v-3q-2.25,3-5.18,3a6.37,6.37,0,0,1-5.47-3.16,14,14,0,0,1-2.15-8,15,15,0,0,1,2-7.94,6.48,6.48,0,0,1,5.68-3.47,6.06,6.06,0,0,1,5.13,3v-2.41h3.78ZM373.87,252a8.67,8.67,0,0,0-1.27-5,3.86,3.86,0,0,0-3.31-1.91,3.79,3.79,0,0,0-3.39,2.08,9.23,9.23,0,0,0-1.12,4.83,9.14,9.14,0,0,0,1.12,4.78,3.79,3.79,0,0,0,3.39,2,3.86,3.86,0,0,0,3.42-2.06A8.86,8.86,0,0,0,373.87,252Z" style="fill:#07a79d"/><path d="M379.21,231.62a3.6,3.6,0,0,1,.72-2.24,2.1,2.1,0,0,1,1.72-.94,2.13,2.13,0,0,1,1.75.94,3.57,3.57,0,0,1,.72,2.26,3.63,3.63,0,0,1-.72,2.28,2.11,2.11,0,0,1-1.73,1,2.14,2.14,0,0,1-1.74-1A3.65,3.65,0,0,1,379.21,231.62Zm5.38,12v15.08c0,1.74-1.08,3.15-2.41,3.15h0c-1.33,0-2.4-1.41-2.4-3.15V243.65c0-1.73,1.07-3.14,2.4-3.14h0C383.51,240.51,384.59,241.92,384.59,243.65Z" style="fill:#07a79d"/><path d="M402.25,253H390.53a7.71,7.71,0,0,0,1.31,4.19,3.6,3.6,0,0,0,3,1.54,3.3,3.3,0,0,0,2.34-.88,12.43,12.43,0,0,0,2.06-3.25l3.19,2.33a17.5,17.5,0,0,1-1.56,2.82,9.76,9.76,0,0,1-1.76,1.93,6.63,6.63,0,0,1-2,1.11,7.85,7.85,0,0,1-2.37.35,6.9,6.9,0,0,1-5.87-3.07,13.81,13.81,0,0,1-2.22-8.21,14.28,14.28,0,0,1,2.15-8.21,6.69,6.69,0,0,1,5.74-3.09,6.59,6.59,0,0,1,5.7,3q2.08,3,2.08,8.28Zm-3.88-4q-.78-3.94-3.81-3.95a3,3,0,0,0-1.29.28,3.45,3.45,0,0,0-1.1.79,4.76,4.76,0,0,0-.85,1.24,6.86,6.86,0,0,0-.53,1.64Z" style="fill:#07a79d"/><path d="M414.94,244.14l-3.12,2.17c-.49-1.32-1.1-2-1.83-2a1.13,1.13,0,0,0-.89.45,1.78,1.78,0,0,0-.36,1.15c0,.82.72,1.63,2.18,2.43a13,13,0,0,1,4,3.12,6.4,6.4,0,0,1,1,3.84,7.82,7.82,0,0,1-1.74,5.18,5.24,5.24,0,0,1-4.1,2q-4.11,0-5.82-5.24l3.22-2a10.21,10.21,0,0,0,1,2,2.09,2.09,0,0,0,1.65.83c1.27,0,1.91-.76,1.91-2.28a3.17,3.17,0,0,0-1.47-2.46l-1.15-.72-1.15-.73a7.47,7.47,0,0,1-2.32-2.1,6.3,6.3,0,0,1-.86-3.45,7.19,7.19,0,0,1,1.46-4.61,4.56,4.56,0,0,1,3.63-1.82C412.37,239.9,413.93,241.32,414.94,244.14Z" style="fill:#07a79d"/><polygon points="416.51 280.53 224.1 280.53 224.1 203.91 72.84 203.91 72.84 202.2 225.98 202.2 225.98 278.82 416.51 278.82 416.51 280.53" style="fill:url(#linear-gradient)"/><path d="M89.05,192.37l-.1,4.2-29.32,6.51,29.42,6.52v4.14l-15.37-8.9v-3.58Z" style="fill:#4c4c4e"/><ellipse cx="224.89" cy="202.2" rx="5.76" ry="5.23" style="fill:#4c4c4e"/><ellipse cx="224.89" cy="278.72" rx="5.76" ry="5.23" style="fill:#07a79d"/><path d="M399,290.22l.1-4.2,29.33-6.51L399,273v-4.15l15.37,8.9v3.58Z" style="fill:#07a79d"/></g></svg>